<mxfile host="app.diagrams.net" agent="Mozilla/5.0 (Windows NT 10.0; Win64; x64) AppleWebKit/537.36 (KHTML, like Gecko) Chrome/127.0.0.0 Safari/537.36" version="24.7.8">
  <diagram id="3228e29e-7158-1315-38df-8450db1d8a1d" name="Page-1">
    <mxGraphModel dx="2440" dy="1301" grid="0" gridSize="10" guides="1" tooltips="1" connect="1" arrows="1" fold="1" page="1" pageScale="1" pageWidth="1169" pageHeight="827" background="none" math="0" shadow="0">
      <root>
        <mxCell id="0" />
        <mxCell id="1" parent="0" />
        <mxCell id="21531" value="" style="ellipse;fillColor=#d4bc02;opacity=60;strokeColor=#B09500;html=1;fontColor=#000000;" parent="1" vertex="1">
          <mxGeometry x="339.5" y="308.5" width="500" height="500" as="geometry" />
        </mxCell>
        <mxCell id="21532" value="" style="ellipse;fillColor=#12AAB5;opacity=60;strokeColor=none;html=1;fontColor=#FFFFFF;" parent="1" vertex="1">
          <mxGeometry x="179.5" y="18.5" width="500" height="500" as="geometry" />
        </mxCell>
        <mxCell id="21533" value="" style="ellipse;fillColor=#fa6800;opacity=60;strokeColor=#C73500;html=1;fontColor=#000000;" parent="1" vertex="1">
          <mxGeometry x="489.5" y="18.5" width="500" height="500" as="geometry" />
        </mxCell>
        <mxCell id="21534" value="&lt;b&gt;效能提升显著&lt;/b&gt;" style="text;fontSize=24;align=center;verticalAlign=middle;html=1;fontColor=#FFFFFF;" parent="1" vertex="1">
          <mxGeometry x="299.5" y="228.5" width="190" height="70" as="geometry" />
        </mxCell>
        <mxCell id="21535" value="&lt;b&gt;使用成本低&lt;/b&gt;" style="text;fontSize=24;align=center;verticalAlign=middle;html=1;fontColor=#FFFFFF;" parent="1" vertex="1">
          <mxGeometry x="699.5" y="228.5" width="190" height="70" as="geometry" />
        </mxCell>
        <mxCell id="21536" value="&lt;b&gt;成熟度高&lt;/b&gt;" style="text;fontSize=24;align=center;verticalAlign=middle;html=1;fontColor=#FFFFFF;" parent="1" vertex="1">
          <mxGeometry x="499.5" y="558.5" width="190" height="70" as="geometry" />
        </mxCell>
        <mxCell id="21537" value="Devmate&lt;div&gt;WorkChat&lt;/div&gt;&lt;div&gt;AI4CodeReview&lt;/div&gt;" style="text;align=center;html=1;fontColor=#FFFFFF;fontSize=16;" parent="1" vertex="1">
          <mxGeometry x="569.5" y="198.5" width="40" height="40" as="geometry" />
        </mxCell>
        <mxCell id="21538" value="Codemate&lt;div&gt;Testmate&lt;/div&gt;" style="text;align=center;html=1;fontColor=#FFFFFF;fontSize=16;" parent="1" vertex="1">
          <mxGeometry x="420" y="418.5" width="100" height="51.5" as="geometry" />
        </mxCell>
        <mxCell id="21539" value="效能提升不明显" style="text;align=center;html=1;fontColor=#FFFFFF;fontSize=16;" parent="1" vertex="1">
          <mxGeometry x="699.5" y="418.5" width="40" height="40" as="geometry" />
        </mxCell>
        <mxCell id="21540" value="Sweet Spot" style="text;align=center;html=1;fontColor=#FFFFFF;fontSize=16;" parent="1" vertex="1">
          <mxGeometry x="569.5" y="348.5" width="40" height="40" as="geometry" />
        </mxCell>
      </root>
    </mxGraphModel>
  </diagram>
</mxfile>
